<svg width="159" height="46" viewBox="0 0 159 46" xmlns="http://www.w3.org/2000/svg">
  <g fill="none" fill-rule="evenodd">
    <circle fill="#00AEEF" cx="23" cy="23" r="23"/>
    <path d="M29.3 37L19 15h20l-9.7 22zM8 15l10.497 22L23 26.965 17.312 15H8z" fill="#FFF"/>
    <g fill="#FFFFFF">
      <path d="M52.5 19.25h3.41l2.783 7.875 3.004-7.875h2.096l2.94 7.78 2.786-7.78h3.44l-5.068 13.844h-2.19l-2.94-7.875-3.036 7.874h-2.19L52.5 19.25zM88.103 27.188h-11.17c.157.968.595 1.78 1.284 2.343.688.595 1.595.876 2.69.876 1.314 0 2.41-.468 3.348-1.375l2.94 1.376c-.72 1.032-1.595 1.813-2.627 2.282-1.033.5-2.22.75-3.63.75-2.19 0-3.942-.688-5.318-2.063-1.377-1.375-2.065-3.094-2.065-5.156 0-2.126.688-3.876 2.034-5.25 1.375-1.407 3.065-2.095 5.13-2.095 2.19 0 3.973.688 5.318 2.094 1.377 1.405 2.065 3.25 2.065 5.53v.688zm-3.504-2.75c-.22-.782-.69-1.407-1.346-1.875-.688-.47-1.47-.72-2.347-.72-.97 0-1.814.282-2.565.813-.47.344-.876.938-1.283 1.782h7.54zM94.173 13.906v6.875c.626-.624 1.314-1.093 2.034-1.405.72-.313 1.502-.47 2.346-.47 1.815 0 3.348.69 4.6 2.064 1.25 1.374 1.908 3.124 1.908 5.25 0 2.06-.656 3.78-1.97 5.186-1.314 1.375-2.847 2.094-4.662 2.094-.813 0-1.533-.156-2.22-.438-.69-.28-1.378-.75-2.066-1.406v1.47H90.7v-19.22h3.473zm3.66 8.188c-1.094 0-2.002.375-2.72 1.125-.72.75-1.096 1.718-1.096 2.936 0 1.22.375 2.22 1.095 2.97s1.627 1.124 2.722 1.124c1.063 0 1.97-.375 2.69-1.156.72-.782 1.095-1.75 1.095-2.938 0-1.187-.345-2.156-1.064-2.906-.75-.78-1.627-1.156-2.722-1.156zM109.754 13.563c.595 0 1.126.218 1.564.656.438.436.657.967.657 1.592 0 .626-.22 1.157-.657 1.594-.438.438-.938.657-1.564.657-.626 0-1.158-.22-1.596-.657-.438-.437-.657-1-.657-1.625 0-.624.22-1.124.658-1.56.438-.47.97-.658 1.596-.658zm-1.752 5.687h3.473v13.844h-3.473V19.25zM115.23 13.906h3.472V24.97l5.13-5.72h4.38l-5.974 6.625 6.695 7.22h-4.318l-5.882-6.376v6.374h-3.472V13.906h-.03zM146.39 19.25h3.474v1.406c.782-.656 1.502-1.125 2.16-1.375.625-.25 1.282-.374 1.97-.374 1.377 0 2.534.47 3.504 1.438.814.812 1.22 2.03 1.22 3.625v9.155h-3.44v-6.063c0-1.656-.064-2.75-.22-3.28-.157-.532-.407-.97-.782-1.25-.376-.282-.814-.438-1.377-.438-.69 0-1.315.25-1.816.718-.5.47-.844 1.125-1.063 1.938-.093.438-.156 1.375-.156 2.813v5.562h-3.473V19.25zM142.73 22.53c-.656-1.124-1.532-2-2.69-2.655-1.158-.656-2.378-.97-3.692-.97-1.815 0-3.41.626-4.818 1.876-1.596 1.44-2.378 3.25-2.378 5.407 0 2.032.688 3.75 2.096 5.157 1.408 1.406 3.098 2.125 5.1 2.125 1.345 0 2.597-.314 3.692-.97 1.126-.625 2.002-1.53 2.66-2.656.656-1.125.97-2.344.97-3.657.03-1.312-.282-2.53-.94-3.656zm-6.257 7.376c-2.065 0-3.754-1.687-3.754-3.75 0-2.062 1.688-3.75 3.753-3.75 2.065 0 3.755 1.688 3.755 3.75 0 2.094-1.69 3.75-3.755 3.75z"/>
    </g>
  </g>
</svg>
